<svg width="33.914673" height="34.438400" viewBox="0 0 33.9147 34.4384" fill="none" xmlns="http://www.w3.org/2000/svg" xmlns:xlink="http://www.w3.org/1999/xlink">
	<desc>
			Created with Pixso.
	</desc>
	<defs/>
	<path id="path" d="M8.34 23.28C7.98 23.28 7.63 23.31 7.28 23.37C6.93 23.43 6.59 23.52 6.26 23.64C5.92 23.76 5.6 23.91 5.29 24.08C4.99 24.26 4.7 24.46 4.42 24.68C4.15 24.91 3.9 25.15 3.67 25.42C3.44 25.69 3.23 25.98 3.05 26.28C2.87 26.59 2.71 26.91 2.59 27.24C2.46 27.57 2.36 27.91 2.3 28.26L1.98 29.91C1.94 30.06 1.93 30.22 1.94 30.38C1.94 30.54 1.96 30.7 2 30.85C2.04 31.01 2.1 31.16 2.17 31.3C2.24 31.45 2.33 31.58 2.43 31.7C2.53 31.83 2.65 31.94 2.77 32.04C2.9 32.13 3.04 32.22 3.18 32.29C3.33 32.35 3.48 32.41 3.63 32.44C3.79 32.48 3.95 32.49 4.11 32.49L29.8 32.49C29.96 32.49 30.12 32.48 30.27 32.44C30.43 32.41 30.58 32.35 30.72 32.29C30.87 32.22 31 32.13 31.13 32.04C31.26 31.94 31.37 31.83 31.47 31.7C31.58 31.58 31.66 31.45 31.74 31.3C31.81 31.16 31.86 31.01 31.9 30.85C31.94 30.7 31.96 30.54 31.97 30.38C31.97 30.22 31.96 30.06 31.93 29.91L31.61 28.26C31.54 27.91 31.44 27.57 31.32 27.24C31.19 26.91 31.04 26.59 30.86 26.28C30.68 25.98 30.47 25.69 30.24 25.42C30.01 25.15 29.76 24.91 29.48 24.68C29.21 24.46 28.92 24.26 28.61 24.08C28.3 23.91 27.98 23.76 27.65 23.64C27.31 23.52 26.97 23.43 26.62 23.37C26.27 23.31 25.92 23.28 25.57 23.28L8.34 23.28ZM8.34 21.34L25.57 21.34C29.44 21.34 32.77 24.08 33.51 27.89L33.83 29.53C33.86 29.68 33.88 29.83 33.9 29.98C33.91 30.13 33.91 30.28 33.91 30.44C33.9 30.59 33.89 30.74 33.87 30.89C33.85 31.04 33.82 31.19 33.78 31.33C33.75 31.48 33.7 31.62 33.65 31.76C33.59 31.91 33.53 32.04 33.47 32.18C33.4 32.31 33.32 32.44 33.24 32.57C33.16 32.7 33.07 32.82 32.97 32.94C32.87 33.05 32.77 33.16 32.66 33.27C32.56 33.37 32.44 33.47 32.32 33.57C32.2 33.66 32.08 33.75 31.95 33.82C31.82 33.9 31.69 33.98 31.55 34.04C31.41 34.1 31.27 34.16 31.13 34.21C30.99 34.26 30.84 34.3 30.7 34.33C30.55 34.37 30.4 34.39 30.25 34.41C30.1 34.43 29.95 34.43 29.8 34.43L4.11 34.43C3.96 34.43 3.81 34.43 3.66 34.41C3.51 34.39 3.36 34.37 3.21 34.33C3.06 34.3 2.92 34.26 2.77 34.21C2.63 34.16 2.49 34.1 2.35 34.04C2.22 33.98 2.08 33.9 1.96 33.82C1.83 33.75 1.7 33.66 1.58 33.57C1.46 33.47 1.35 33.37 1.24 33.27C1.13 33.16 1.03 33.05 0.93 32.94C0.84 32.82 0.75 32.7 0.67 32.57C0.58 32.44 0.51 32.31 0.44 32.18C0.37 32.04 0.31 31.91 0.26 31.76C0.2 31.62 0.16 31.48 0.12 31.33C0.08 31.19 0.06 31.04 0.03 30.89C0.01 30.74 0 30.59 0 30.44C-0.01 30.28 0 30.13 0.01 29.98C0.02 29.83 0.04 29.68 0.07 29.53L0.39 27.89C0.44 27.66 0.49 27.43 0.55 27.21C0.62 26.98 0.69 26.76 0.77 26.55C0.86 26.33 0.95 26.12 1.05 25.91C1.15 25.7 1.26 25.49 1.38 25.29C1.5 25.09 1.63 24.9 1.76 24.71C1.9 24.52 2.04 24.34 2.19 24.16C2.35 23.98 2.5 23.81 2.67 23.65C2.84 23.49 3.01 23.33 3.19 23.19C3.37 23.04 3.55 22.9 3.75 22.77C3.94 22.63 4.13 22.51 4.34 22.39C4.54 22.28 4.74 22.17 4.96 22.08C5.17 21.98 5.38 21.89 5.6 21.81C5.82 21.73 6.04 21.67 6.27 21.61C6.49 21.55 6.72 21.5 6.95 21.46C7.18 21.42 7.41 21.39 7.64 21.37C7.87 21.35 8.1 21.34 8.34 21.34Z" fill="#4C4C4C" fill-opacity="1.000000" fill-rule="nonzero"/>
	<path id="path" d="M15.48 1.94C12.01 1.94 9.19 4.75 9.19 8.22L9.19 11.17C9.19 14.64 12.01 17.46 15.48 17.46L18.43 17.46C21.9 17.46 24.71 14.64 24.71 11.17L24.71 8.22C24.71 4.75 21.9 1.94 18.43 1.94L15.48 1.94ZM15.48 0L18.43 0C22.97 0 26.65 3.68 26.65 8.22L26.65 11.17C26.65 15.71 22.97 19.4 18.43 19.4L15.48 19.4C10.93 19.4 7.25 15.71 7.25 11.17L7.25 8.22C7.25 3.68 10.93 0 15.48 0Z" fill="#4C4C4C" fill-opacity="1.000000" fill-rule="nonzero"/>
	<path id="path" d="M7.66 9.2L7.66 7.15L9.2 7.15C9.71 7.15 10.21 7.22 10.71 7.37C11.2 7.52 11.66 7.75 12.08 8.03L12.17 8.09C12.26 8.15 12.36 8.2 12.46 8.24C12.57 8.27 12.68 8.3 12.79 8.3C12.9 8.31 13.01 8.3 13.12 8.27C13.23 8.25 13.34 8.21 13.43 8.16L15.05 7.28L16.79 6.3C17.15 6.1 17.54 5.94 17.94 5.83C18.34 5.71 18.76 5.65 19.17 5.64C19.59 5.63 20.01 5.67 20.41 5.76C20.82 5.85 21.22 5.98 21.59 6.17L22.92 6.83C23.35 7.04 23.81 7.15 24.29 7.15L26.11 7.15L26.11 9.2L24.29 9.2C23.49 9.2 22.73 9.03 22.01 8.67L20.68 8.01C20.45 7.9 20.22 7.82 19.97 7.77C19.73 7.71 19.48 7.69 19.23 7.7C18.98 7.7 18.73 7.74 18.49 7.81C18.25 7.87 18.02 7.97 17.8 8.09L16.05 9.08L14.41 9.96C14.15 10.11 13.87 10.21 13.58 10.28C13.28 10.34 12.99 10.37 12.69 10.35C12.39 10.34 12.1 10.28 11.81 10.19C11.53 10.09 11.26 9.96 11.01 9.79L10.93 9.74C10.41 9.38 9.83 9.2 9.2 9.2L7.66 9.2Z" fill="#4C4C4C" fill-opacity="1.000000" fill-rule="nonzero"/>
</svg>
